<?xml version="1.0" encoding="UTF-8" standalone="no"?>
<!-- Created with Inkscape (http://www.inkscape.org/) -->

<svg
   width="34.079639mm"
   height="33.866665mm"
   viewBox="0 0 34.079639 33.866665"
   version="1.1"
   id="svg5"
   inkscape:version="1.2.1 (9c6d41e410, 2022-07-14)"
   sodipodi:docname="combat_actor.svg"
   xmlns:inkscape="http://www.inkscape.org/namespaces/inkscape"
   xmlns:sodipodi="http://sodipodi.sourceforge.net/DTD/sodipodi-0.dtd"
   xmlns="http://www.w3.org/2000/svg"
   xmlns:svg="http://www.w3.org/2000/svg">
  <sodipodi:namedview
     id="namedview7"
     pagecolor="#505050"
     bordercolor="#eeeeee"
     borderopacity="1"
     inkscape:pageshadow="0"
     inkscape:pageopacity="0"
     inkscape:pagecheckerboard="0"
     inkscape:document-units="mm"
     showgrid="true"
     inkscape:zoom="4.4039692"
     inkscape:cx="77.657219"
     inkscape:cy="62.670738"
     inkscape:window-width="1366"
     inkscape:window-height="705"
     inkscape:window-x="-8"
     inkscape:window-y="-8"
     inkscape:window-maximized="1"
     inkscape:current-layer="layer1"
     inkscape:snap-nodes="false"
     inkscape:showpageshadow="0"
     inkscape:deskcolor="#505050">
    <inkscape:grid
       type="xygrid"
       id="grid27654"
       spacingx="16.933333"
       spacingy="16.933333"
       color="#000000"
       opacity="0.1254902"
       empcolor="#ff760a"
       empopacity="0.25098039"
       enabled="false"
       originx="0"
       originy="0" />
  </sodipodi:namedview>
  <defs
     id="defs2">
    <inkscape:path-effect
       effect="powerstroke"
       id="path-effect3021"
       is_visible="true"
       lpeversion="1"
       offset_points="1,17.6887"
       not_jump="false"
       sort_points="true"
       interpolator_type="CubicBezierJohan"
       interpolator_beta="0.2"
       start_linecap_type="zerowidth"
       linejoin_type="extrp_arc"
       miter_limit="4"
       scale_width="1"
       end_linecap_type="zerowidth" />
    <inkscape:path-effect
       effect="powerstroke"
       id="path-effect1542"
       is_visible="true"
       lpeversion="1"
       offset_points="2,1"
       not_jump="false"
       sort_points="true"
       interpolator_type="CubicBezierJohan"
       interpolator_beta="0.2"
       start_linecap_type="zerowidth"
       linejoin_type="extrp_arc"
       miter_limit="4"
       scale_width="1"
       end_linecap_type="zerowidth" />
    <inkscape:path-effect
       effect="powerstroke"
       id="path-effect1507"
       is_visible="true"
       lpeversion="1"
       offset_points="3,1"
       not_jump="false"
       sort_points="true"
       interpolator_type="CubicBezierJohan"
       interpolator_beta="0.2"
       start_linecap_type="zerowidth"
       linejoin_type="extrp_arc"
       miter_limit="4"
       scale_width="1"
       end_linecap_type="zerowidth" />
    <inkscape:path-effect
       effect="powerstroke"
       id="path-effect107"
       is_visible="true"
       lpeversion="1"
       offset_points="5,1"
       not_jump="false"
       sort_points="true"
       interpolator_type="CubicBezierJohan"
       interpolator_beta="0.2"
       start_linecap_type="zerowidth"
       linejoin_type="extrp_arc"
       miter_limit="4"
       scale_width="1"
       end_linecap_type="zerowidth" />
  </defs>
  <g
     inkscape:label="Шар 1"
     inkscape:groupmode="layer"
     id="layer1">
    <rect
       style="fill:#666666;fill-opacity:0;fill-rule:evenodd;stroke-width:0.499999;paint-order:fill markers stroke"
       id="rect1308"
       width="33.866665"
       height="33.866665"
       x="-0.18023513"
       y="0" />
    <path
       id="path1577"
       style="fill:#a5b7f3;fill-opacity:1;fill-rule:evenodd;stroke:none;stroke-width:0.264999;stroke-dasharray:none;stroke-opacity:1;paint-order:fill markers stroke"
       d="m 10.478546,12.14035 c -1.4088672,2.361486 -2.1485728,5.00248 -2.1528403,7.686352 0.00274,1.682535 0.2945857,3.354446 0.8650634,4.95577 0.9123439,-0.665247 2.3493809,-1.54998 4.1563359,-2.121834 0.803784,-0.254378 1.692205,-0.443702 2.642732,-0.523482 0.37807,-0.03173 0.766152,-0.04594 1.16272,-0.04082 v -6.849711 c -0.02015,4.15e-4 -0.04031,7.6e-4 -0.06046,10e-4 -2.574634,-1.18e-4 -5.009001,-1.143878 -6.61355,-3.107304 z m 0.810803,14.403255 c 1.516386,2.254706 3.638089,3.542014 5.863208,3.557406 v -6.210443 c -2.246778,0 -4.763067,1.62396 -5.863208,2.653037 z"
       sodipodi:nodetypes="cccssccccccccc" />
    <path
       id="ellipse1633"
       style="fill:#a5b7f3;fill-opacity:1;fill-rule:evenodd;stroke:none;stroke-width:0.264999;stroke-dasharray:none;stroke-opacity:1;paint-order:fill markers stroke"
       d="M 8.7081113,6.4864319 C 4.6551912,6.6651349 1.7285785,6.9639209 0.60938075,7.3132549 0.47439398,8.1260209 0.40557989,8.9571639 0.40422531,9.7911399 0.40500082,12.757499 1.2580213,15.601581 2.7751401,17.696083 4.0002441,16.863234 5.839136,16.481656 7.0689349,16.473435 7.4636802,14.379235 8.1088175,12.544661 9.323845,10.937742 8.4221499,9.2579859 8.2736728,7.9434209 8.7008737,6.5551609 c 0.00231,-0.02292 0.00472,-0.04583 0.00723,-0.06873 z"
       sodipodi:nodetypes="ccccccccc" />
    <path
       id="path3078"
       style="fill:#fa9b9b;fill-opacity:1;fill-rule:evenodd;stroke:none;stroke-width:0.264999;stroke-dasharray:none;stroke-opacity:1;paint-order:fill markers stroke"
       d="m 23.825085,12.14035 c 1.408867,2.361486 2.148573,5.00248 2.15284,7.686352 -0.0027,1.682535 -0.294585,3.354446 -0.865063,4.95577 -0.912344,-0.665247 -2.349381,-1.54998 -4.156336,-2.121834 -0.803784,-0.254378 -1.692205,-0.443702 -2.642732,-0.523482 -0.37807,-0.03173 -0.766152,-0.04594 -1.16272,-0.04082 v -6.849711 c 0.02015,4.15e-4 0.04031,7.6e-4 0.06046,10e-4 2.574634,-1.18e-4 5.009001,-1.143878 6.61355,-3.107304 z m -0.810803,14.403255 c -1.516386,2.254706 -3.638089,3.542014 -5.863208,3.557406 v -6.210443 c 2.246778,0 4.763067,1.62396 5.863208,2.653037 z"
       sodipodi:nodetypes="cccssccccccccc" />
    <path
       id="path3080"
       style="fill:#fa9b9b;fill-opacity:1;fill-rule:evenodd;stroke:none;stroke-width:0.264999;stroke-dasharray:none;stroke-opacity:1;paint-order:fill markers stroke"
       d="m 25.59552,6.4864319 c 4.05292,0.178703 6.979532,0.477489 8.09873,0.826823 0.134987,0.812766 0.203801,1.643909 0.205156,2.477885 -7.76e-4,2.9663591 -0.853796,5.8104411 -2.370915,7.9049431 -1.225105,-0.832848 -3.063994,-1.214427 -4.293795,-1.222648 -0.574981,-2.334497 -0.799569,-3.358013 -2.375067,-5.655834 0.901737,-1.6797681 1.410609,-2.9642711 0.743113,-4.2624241 -0.0023,-0.02292 -0.0047,-0.04583 -0.0072,-0.06873 z"
       sodipodi:nodetypes="cccccccsc" />
  </g>
</svg>
