<?xml version="1.0" encoding="UTF-8" standalone="no"?>
<!-- Created with Inkscape (http://www.inkscape.org/) -->

<svg
   width="33.866676mm"
   height="33.866665mm"
   viewBox="0 0 33.866676 33.866665"
   version="1.1"
   id="svg5"
   inkscape:version="1.2.1 (9c6d41e410, 2022-07-14)"
   sodipodi:docname="stat_sheet.svg"
   xmlns:inkscape="http://www.inkscape.org/namespaces/inkscape"
   xmlns:sodipodi="http://sodipodi.sourceforge.net/DTD/sodipodi-0.dtd"
   xmlns="http://www.w3.org/2000/svg"
   xmlns:svg="http://www.w3.org/2000/svg">
  <sodipodi:namedview
     id="namedview7"
     pagecolor="#505050"
     bordercolor="#eeeeee"
     borderopacity="1"
     inkscape:pageshadow="0"
     inkscape:pageopacity="0"
     inkscape:pagecheckerboard="0"
     inkscape:document-units="mm"
     showgrid="true"
     inkscape:zoom="1.1009923"
     inkscape:cx="272.48147"
     inkscape:cy="159.8558"
     inkscape:window-width="1920"
     inkscape:window-height="1057"
     inkscape:window-x="-8"
     inkscape:window-y="-8"
     inkscape:window-maximized="1"
     inkscape:current-layer="layer1"
     inkscape:snap-nodes="false"
     inkscape:showpageshadow="0"
     inkscape:deskcolor="#505050">
    <inkscape:grid
       type="xygrid"
       id="grid27654"
       spacingx="16.933333"
       spacingy="16.933333"
       color="#000000"
       opacity="0.1254902"
       empcolor="#ff760a"
       empopacity="0.25098039"
       enabled="false" />
  </sodipodi:namedview>
  <defs
     id="defs2" />
  <g
     inkscape:label="Шар 1"
     inkscape:groupmode="layer"
     id="layer1"
     transform="translate(-101.59999)">
    <rect
       style="fill:#666666;fill-opacity:0;fill-rule:evenodd;stroke-width:0.499999;paint-order:fill markers stroke"
       id="rect1306"
       width="33.866665"
       height="33.866665"
       x="101.59998"
       y="0" />
    <path
       id="path1090"
       style="fill:#ffffff;fill-opacity:1;stroke:none;stroke-width:0.264583px;stroke-linecap:butt;stroke-linejoin:miter;stroke-opacity:1"
       d="m 115.97638,1.2609049 c -2.73584,0.1147695 -4.17981,0.5016915 -6.15621,1.5146363 l 1.00924,2.1058146 c -0.98983,0.4611621 -1.86423,1.1018733 -2.74557,1.9812744 l -1.97042,-1.9869588 c -0.0277,0.016232 -0.0495,0.028594 -0.0775,0.044958 -4.07851,2.378564 -3.83387,5.3690506 -3.83387,8.0610076 0,9.439146 10.00768,20.278865 15.99696,20.278865 5.98925,0 15.99747,-10.839719 15.99747,-20.278865 0,-2.691956 0.24412,-5.6824436 -3.83439,-8.0610076 -0.028,-0.016365 -0.0493,-0.028726 -0.077,-0.044958 l -1.97094,1.9869588 C 127.43278,5.9832288 126.55891,5.342518 125.56908,4.8813558 l 1.00872,-2.1058146 c -1.97638,-1.0129448 -3.42034,-1.3998669 -6.15621,-1.5146363 l -0.43046,2.7109457 c -0.34352,-0.00857 -0.43034,-0.2041219 -1.79214,-0.2041219 -1.3618,0 -1.44811,0.1955519 -1.79163,0.2041219 z m 1.10588,6.9876872 h 2.312 c 0.0562,0 0.11174,0.00275 0.1664,0.00827 0.0547,0.00552 0.10834,0.014036 0.16123,0.024805 0.0529,0.010769 0.10469,0.024039 0.15555,0.039791 0.0508,0.015752 0.10079,0.033793 0.14934,0.05426 0.0485,0.020467 0.0961,0.043299 0.14211,0.068213 0.046,0.024914 0.0902,0.052038 0.13333,0.081132 0.0431,0.029094 0.085,0.060012 0.12505,0.093018 0.04,0.033006 0.0786,0.067736 0.11524,0.1043864 0.0367,0.03665 0.0714,0.075212 0.10439,0.1152385 0.033,0.040026 0.0639,0.081922 0.093,0.1250569 0.0291,0.043135 0.0562,0.087349 0.0811,0.1333252 0.0249,0.045976 0.0477,0.093561 0.0682,0.1421102 0.0205,0.04855 0.0385,0.09849 0.0543,0.1493449 0.0157,0.050855 0.029,0.102653 0.0398,0.1555461 0.0108,0.052893 0.0193,0.1065673 0.0248,0.1612304 0.006,0.054663 0.008,0.1102325 0.008,0.1663981 v 15.4093952 1.058333 c -0.91243,0.141788 -1.86203,0.214607 -2.8174,0.216007 -0.92786,-0.0014 -1.8504,-0.07018 -2.73885,-0.204121 V 25.291996 9.8707153 c 0,-0.056166 0.003,-0.1117349 0.008,-0.1663981 0.006,-0.054663 0.014,-0.1083374 0.0248,-0.1612304 0.0108,-0.052893 0.024,-0.104691 0.0398,-0.1555461 0.0157,-0.050855 0.0338,-0.1007954 0.0543,-0.1493449 0.0205,-0.04855 0.0433,-0.096134 0.0682,-0.1421102 0.0249,-0.045976 0.052,-0.09019 0.0811,-0.1333252 0.0291,-0.043135 0.06,-0.085031 0.093,-0.1250569 0.033,-0.040026 0.0677,-0.078589 0.10439,-0.1152385 0.0366,-0.03665 0.0752,-0.071381 0.11524,-0.1043864 0.04,-0.033006 0.0819,-0.063924 0.12505,-0.093018 0.0431,-0.029094 0.0874,-0.056218 0.13333,-0.081132 0.046,-0.024914 0.0936,-0.047746 0.14211,-0.068213 0.0485,-0.020467 0.0985,-0.038509 0.14934,-0.05426 0.0509,-0.015752 0.10266,-0.029022 0.15555,-0.039791 0.0529,-0.010769 0.10657,-0.019286 0.16123,-0.024805 0.0547,-0.00552 0.11023,-0.00827 0.1664,-0.00827 z m 6.81095,4.1692549 h 2.31201 c 0.0562,0 0.11173,0.0028 0.16639,0.0083 0.0547,0.0055 0.10834,0.01404 0.16124,0.02481 0.0529,0.01077 0.10469,0.02404 0.15554,0.03979 0.0509,0.01575 0.1008,0.03379 0.14935,0.05426 0.0486,0.02047 0.0961,0.0433 0.14211,0.06821 0.046,0.02491 0.0902,0.05204 0.13332,0.08113 0.0431,0.02909 0.085,0.06001 0.12506,0.09302 0.04,0.03301 0.0786,0.06774 0.11524,0.104387 0.0366,0.03665 0.0714,0.07521 0.10438,0.115238 0.033,0.04003 0.0639,0.08192 0.093,0.125057 0.0291,0.04313 0.0562,0.08735 0.0811,0.133325 0.0249,0.04598 0.0477,0.09356 0.0682,0.14211 0.0205,0.04855 0.0385,0.09849 0.0543,0.149345 0.0157,0.05086 0.029,0.102653 0.0398,0.155546 0.0108,0.05289 0.0193,0.106568 0.0248,0.161231 0.006,0.05466 0.008,0.110232 0.008,0.166398 v 6.65024 1.058333 h -0.0279 c -0.003,1.863505 -2.15751,3.558181 -5.52834,4.348572 V 25.038782 14.03997 c 0,-0.05617 0.003,-0.111735 0.008,-0.166398 0.006,-0.05466 0.014,-0.108338 0.0248,-0.161231 0.0108,-0.05289 0.024,-0.104691 0.0398,-0.155546 0.0158,-0.05085 0.0338,-0.100795 0.0543,-0.149345 0.0205,-0.04855 0.0433,-0.09613 0.0682,-0.14211 0.0249,-0.04598 0.052,-0.09019 0.0811,-0.133325 0.0291,-0.04314 0.06,-0.08503 0.093,-0.125057 0.033,-0.04003 0.0677,-0.07859 0.10438,-0.115238 0.0366,-0.03665 0.0752,-0.07138 0.11524,-0.104387 0.04,-0.03301 0.0819,-0.06392 0.12506,-0.09302 0.0431,-0.02909 0.0874,-0.05622 0.13332,-0.08113 0.046,-0.02491 0.0936,-0.04775 0.14211,-0.06821 0.0486,-0.02047 0.0985,-0.03851 0.14935,-0.05426 0.0509,-0.01575 0.10265,-0.02902 0.15554,-0.03979 0.0529,-0.01077 0.10657,-0.01929 0.16123,-0.02481 0.0547,-0.0055 0.11024,-0.0083 0.1664,-0.0083 z m -13.90302,3.937227 h 2.8298 c 0.0472,0 0.0936,0.0026 0.13952,0.0072 0.0459,0.0046 0.0915,0.0111 0.13591,0.02015 0.53342,0.108682 0.95181,0.527411 1.0604,1.060917 0.009,0.04446 0.0155,0.08996 0.0202,0.135909 0.005,0.04594 0.007,0.09232 0.007,0.139526 v 7.333403 1.058333 c -3.18088,-0.734376 -5.31035,-2.277813 -5.55625,-4.027144 v -1.058334 -3.306258 c 0,-0.0472 0.003,-0.09358 0.007,-0.139526 0.005,-0.04594 0.0111,-0.09145 0.0201,-0.135909 0.1086,-0.533506 0.52698,-0.952235 1.0604,-1.060917 0.0445,-0.0091 0.09,-0.01551 0.13591,-0.02015 0.0459,-0.0046 0.0923,-0.0072 0.13953,-0.0072 z" />
    <rect
       style="fill:#666666;fill-opacity:0;fill-rule:evenodd;stroke-width:0.499999;paint-order:fill markers stroke"
       id="rect1096"
       width="33.866642"
       height="33.866665"
       x="101.60002"
       y="0" />
    <rect
       style="fill:#666666;fill-opacity:0;fill-rule:evenodd;stroke-width:0.499999;paint-order:fill markers stroke"
       id="rect1098"
       width="33.866642"
       height="33.866665"
       x="101.6"
       y="0" />
    <rect
       style="fill:#666666;fill-opacity:0;fill-rule:evenodd;stroke-width:0.499999;paint-order:fill markers stroke"
       id="rect1100"
       width="33.866642"
       height="33.866665"
       x="101.60002"
       y="0" />
  </g>
</svg>
